<svg width="256" height="256" viewBox="0 0 256 256" fill="none" xmlns="http://www.w3.org/2000/svg">
  <defs>
    <linearGradient id="bg" x1="44" y1="34" x2="214" y2="220" gradientUnits="userSpaceOnUse">
      <stop stop-color="#FFF9F6"/>
      <stop offset="1" stop-color="#F7F1EC"/>
    </linearGradient>
    <linearGradient id="pants" x1="94" y1="76" x2="164" y2="188" gradientUnits="userSpaceOnUse">
      <stop stop-color="#F3DFC6"/>
      <stop offset="1" stop-color="#D8B48E"/>
    </linearGradient>
    <filter id="shadow" x="30" y="36" width="196" height="188" filterUnits="userSpaceOnUse" color-interpolation-filters="sRGB">
      <feDropShadow dx="0" dy="14" stdDeviation="14" flood-color="#B08A67" flood-opacity="0.16"/>
      <feDropShadow dx="0" dy="4" stdDeviation="4" flood-color="#FFFFFF" flood-opacity="0.26"/>
    </filter>
  </defs>
  <ellipse cx="128" cy="210" rx="58" ry="14" fill="#E8DDD1"/>
  <g filter="url(#shadow)">
    <rect x="52" y="48" width="152" height="148" rx="32" fill="url(#bg)" stroke="#EBDACB" stroke-width="2"/>
    <ellipse cx="114" cy="74" rx="46" ry="16" fill="#FFFFFF" fill-opacity="0.52"/>
    <path d="M96 72H160L154 184H132L128 132L124 184H102L96 72Z" fill="url(#pants)"/>
    <path d="M100 80H156L150 170H136L128 124L120 170H106L100 80Z" fill="#FFFFFF" fill-opacity="0.08"/>
    <rect x="96" y="72" width="64" height="16" rx="8" fill="#FFF3E7"/>
    <path d="M126 88V184" stroke="#C29B78" stroke-width="4" stroke-linecap="round"/>
    <path d="M106 104H118M138 104H150" stroke="#C29B78" stroke-width="4" stroke-linecap="round"/>
    <path d="M96 72H160L154 184H132L128 132L124 184H102L96 72Z" stroke="#B18962" stroke-opacity="0.16" stroke-width="2"/>
  </g>
</svg>
