<svg width="256" height="256" viewBox="0 0 256 256" fill="none" xmlns="http://www.w3.org/2000/svg">
  <defs>
    <linearGradient id="bg" x1="42" y1="30" x2="212" y2="216" gradientUnits="userSpaceOnUse">
      <stop stop-color="#FDF8FF"/>
      <stop offset="1" stop-color="#EEF5FF"/>
    </linearGradient>
    <linearGradient id="hair" x1="86" y1="56" x2="174" y2="154" gradientUnits="userSpaceOnUse">
      <stop stop-color="#5A35FF"/>
      <stop offset="1" stop-color="#FF4DB8"/>
    </linearGradient>
    <filter id="shadow" x="28" y="34" width="200" height="190" filterUnits="userSpaceOnUse" color-interpolation-filters="sRGB">
      <feDropShadow dx="0" dy="14" stdDeviation="14" flood-color="#6B6BFF" flood-opacity="0.16"/>
      <feDropShadow dx="0" dy="4" stdDeviation="4" flood-color="#FFFFFF" flood-opacity="0.24"/>
    </filter>
  </defs>
  <ellipse cx="128" cy="208" rx="56" ry="14" fill="#E6E9FF"/>
  <g filter="url(#shadow)">
    <rect x="52" y="40" width="152" height="152" rx="32" fill="url(#bg)" stroke="#D9DEFF" stroke-width="2"/>
    <ellipse cx="112" cy="66" rx="48" ry="16" fill="#FFFFFF" fill-opacity="0.5"/>
    <path d="M86 118C86 83 105 58 128 58C151 58 170 83 170 118V129C170 147 156 162 138 162H118C100 162 86 147 86 129V118Z" fill="url(#hair)"/>
    <path d="M96 114C96 88 111 70 128 70C145 70 160 88 160 114V126C160 138 150 148 138 148H118C106 148 96 138 96 126V114Z" fill="#FFFFFF" fill-opacity="0.08"/>
    <path d="M90 112C98 90 113 78 128 78C143 78 158 90 166 112" stroke="#FFFFFF" stroke-opacity="0.28" stroke-width="6" stroke-linecap="round"/>
    <path d="M92 132C104 122 112 120 124 120C138 120 146 126 164 120" stroke="#FFFFFF" stroke-opacity="0.24" stroke-width="6" stroke-linecap="round"/>
    <circle cx="156" cy="74" r="7" fill="#FFD84D"/>
    <path d="M86 118C86 83 105 58 128 58C151 58 170 83 170 118V129C170 147 156 162 138 162H118C100 162 86 147 86 129V118Z" stroke="#724CFF" stroke-opacity="0.18" stroke-width="2"/>
  </g>
</svg>
