<svg width="256" height="256" viewBox="0 0 256 256" fill="none" xmlns="http://www.w3.org/2000/svg">
  <defs>
    <linearGradient id="bg" x1="42" y1="36" x2="212" y2="218" gradientUnits="userSpaceOnUse">
      <stop stop-color="#F7FBFF"/>
      <stop offset="1" stop-color="#EEF5FF"/>
    </linearGradient>
    <linearGradient id="shoe" x1="72" y1="114" x2="190" y2="174" gradientUnits="userSpaceOnUse">
      <stop stop-color="#6F6DFF"/>
      <stop offset="1" stop-color="#39C2FF"/>
    </linearGradient>
    <filter id="shadow" x="28" y="50" width="200" height="160" filterUnits="userSpaceOnUse" color-interpolation-filters="sRGB">
      <feDropShadow dx="0" dy="12" stdDeviation="12" flood-color="#6AA5FF" flood-opacity="0.18"/>
      <feDropShadow dx="0" dy="4" stdDeviation="4" flood-color="#FFFFFF" flood-opacity="0.24"/>
    </filter>
  </defs>
  <ellipse cx="128" cy="210" rx="60" ry="14" fill="#DCE7FF"/>
  <g filter="url(#shadow)">
    <rect x="48" y="60" width="160" height="132" rx="30" fill="url(#bg)" stroke="#D5E6FF" stroke-width="2"/>
    <ellipse cx="116" cy="82" rx="48" ry="15" fill="#FFFFFF" fill-opacity="0.5"/>
    <path d="M74 152C82 128 98 120 120 120H150C162 120 170 126 178 140L186 154C190 160 186 168 178 168H88C78 168 70 162 74 152Z" fill="url(#shoe)"/>
    <path d="M84 150C90 132 103 128 122 128H148C157 128 164 132 170 142L176 152C178 156 175 160 170 160H94C87 160 82 156 84 150Z" fill="#FFFFFF" fill-opacity="0.1"/>
    <path d="M98 136H144" stroke="#EFFFFF" stroke-width="5" stroke-linecap="round"/>
    <path d="M104 146H150" stroke="#EFFFFF" stroke-width="5" stroke-linecap="round"/>
    <rect x="82" y="164" width="108" height="8" rx="4" fill="#FFF5E8"/>
    <path d="M74 152C82 128 98 120 120 120H150C162 120 170 126 178 140L186 154C190 160 186 168 178 168H88C78 168 70 162 74 152Z" stroke="#3986E8" stroke-opacity="0.18" stroke-width="2"/>
  </g>
</svg>
