<svg width="256" height="256" viewBox="0 0 256 256" fill="none" xmlns="http://www.w3.org/2000/svg">
  <defs>
    <linearGradient id="bg" x1="44" y1="34" x2="214" y2="220" gradientUnits="userSpaceOnUse">
      <stop stop-color="#F7FFF7"/>
      <stop offset="1" stop-color="#EEF7EE"/>
    </linearGradient>
    <linearGradient id="pants" x1="94" y1="76" x2="164" y2="188" gradientUnits="userSpaceOnUse">
      <stop stop-color="#8EB172"/>
      <stop offset="1" stop-color="#5F7E4B"/>
    </linearGradient>
    <filter id="shadow" x="30" y="36" width="196" height="188" filterUnits="userSpaceOnUse" color-interpolation-filters="sRGB">
      <feDropShadow dx="0" dy="14" stdDeviation="14" flood-color="#6B8F52" flood-opacity="0.16"/>
      <feDropShadow dx="0" dy="4" stdDeviation="4" flood-color="#FFFFFF" flood-opacity="0.24"/>
    </filter>
  </defs>
  <ellipse cx="128" cy="210" rx="58" ry="14" fill="#DCE8D4"/>
  <g filter="url(#shadow)">
    <rect x="52" y="48" width="152" height="148" rx="32" fill="url(#bg)" stroke="#D9E8CE" stroke-width="2"/>
    <ellipse cx="114" cy="74" rx="46" ry="16" fill="#FFFFFF" fill-opacity="0.5"/>
    <path d="M96 72H160L154 184H132L128 134L124 184H102L96 72Z" fill="url(#pants)"/>
    <path d="M100 80H156L150 170H134L128 126L122 170H106L100 80Z" fill="#FFFFFF" fill-opacity="0.08"/>
    <rect x="96" y="72" width="64" height="16" rx="8" fill="#DDEBCC"/>
    <rect x="102" y="116" width="20" height="22" rx="5" fill="#77965F"/>
    <rect x="134" y="116" width="20" height="22" rx="5" fill="#77965F"/>
    <path d="M126 88V184" stroke="#A9C390" stroke-width="4" stroke-linecap="round"/>
    <path d="M96 72H160L154 184H132L128 134L124 184H102L96 72Z" stroke="#5B7A47" stroke-opacity="0.18" stroke-width="2"/>
  </g>
</svg>
