<svg width="256" height="256" viewBox="0 0 256 256" fill="none" xmlns="http://www.w3.org/2000/svg">
  <defs>
    <linearGradient id="bg" x1="44" y1="26" x2="216" y2="218" gradientUnits="userSpaceOnUse">
      <stop stop-color="#FFF9FF"/>
      <stop offset="1" stop-color="#F3EEFF"/>
    </linearGradient>
    <linearGradient id="hoodie" x1="78" y1="68" x2="180" y2="184" gradientUnits="userSpaceOnUse">
      <stop stop-color="#B447FF"/>
      <stop offset="0.58" stop-color="#8F35FF"/>
      <stop offset="1" stop-color="#FF4FA0"/>
    </linearGradient>
    <filter id="shadow" x="24" y="28" width="208" height="196" filterUnits="userSpaceOnUse" color-interpolation-filters="sRGB">
      <feDropShadow dx="0" dy="16" stdDeviation="16" flood-color="#A447FF" flood-opacity="0.18"/>
      <feDropShadow dx="0" dy="4" stdDeviation="4" flood-color="#FFFFFF" flood-opacity="0.24"/>
    </filter>
  </defs>
  <ellipse cx="128" cy="210" rx="62" ry="14" fill="#E8DAFF"/>
  <g filter="url(#shadow)">
    <rect x="46" y="40" width="164" height="160" rx="34" fill="url(#bg)" stroke="#E4D7FF" stroke-width="2"/>
    <ellipse cx="112" cy="68" rx="52" ry="18" fill="#FFFFFF" fill-opacity="0.56"/>
    <path d="M104 64H152L170 78L182 100L166 116L154 108V176H102V108L90 116L74 100L86 78L104 64Z" fill="url(#hoodie)"/>
    <path d="M112 72H144L160 84L168 96L160 104L152 100V114H104V100L96 104L88 96L96 84L112 72Z" fill="#FFFFFF" fill-opacity="0.1"/>
    <path d="M114 64C114 56 120 50 128 50C136 50 142 56 142 64V76H114V64Z" fill="#D96CFF"/>
    <path d="M112 126H144" stroke="#FFD84D" stroke-width="6" stroke-linecap="round"/>
    <path d="M118 94L122 106M138 94L134 106" stroke="#FFF4FF" stroke-width="4" stroke-linecap="round"/>
    <path d="M104 64H152L170 78L182 100L166 116L154 108V176H102V108L90 116L74 100L86 78L104 64Z" stroke="#7E30E9" stroke-opacity="0.18" stroke-width="2"/>
  </g>
</svg>
