<svg width="256" height="256" viewBox="0 0 256 256" fill="none" xmlns="http://www.w3.org/2000/svg">
  <defs>
    <linearGradient id="bg" x1="40" y1="28" x2="218" y2="220" gradientUnits="userSpaceOnUse">
      <stop stop-color="#FFF8FF"/>
      <stop offset="1" stop-color="#F3ECFF"/>
    </linearGradient>
    <linearGradient id="hair" x1="90" y1="60" x2="170" y2="156" gradientUnits="userSpaceOnUse">
      <stop stop-color="#523352"/>
      <stop offset="1" stop-color="#2D1B37"/>
    </linearGradient>
    <linearGradient id="skin" x1="96" y1="76" x2="160" y2="160" gradientUnits="userSpaceOnUse">
      <stop stop-color="#F9DFC9"/>
      <stop offset="1" stop-color="#E8BC98"/>
    </linearGradient>
    <filter id="shadow" x="28" y="34" width="200" height="188" filterUnits="userSpaceOnUse" color-interpolation-filters="sRGB">
      <feDropShadow dx="0" dy="14" stdDeviation="14" flood-color="#8C63E5" flood-opacity="0.16"/>
      <feDropShadow dx="0" dy="4" stdDeviation="4" flood-color="#FFFFFF" flood-opacity="0.24"/>
    </filter>
  </defs>
  <ellipse cx="128" cy="208" rx="56" ry="14" fill="#E6D8FF"/>
  <g filter="url(#shadow)">
    <rect x="52" y="40" width="152" height="152" rx="32" fill="url(#bg)" stroke="#E2D7FF" stroke-width="2"/>
    <ellipse cx="112" cy="66" rx="48" ry="16" fill="#FFFFFF" fill-opacity="0.52"/>
    <rect x="98" y="76" width="60" height="66" rx="18" fill="url(#skin)"/>
    <path d="M90 102C90 78 106 60 128 60C150 60 166 78 166 102V134C166 146 156 156 144 156H112C100 156 90 146 90 134V102Z" fill="url(#hair)"/>
    <path d="M96 102C96 82 110 68 128 68C146 68 160 82 160 102V132C160 141 153 148 144 148H112C103 148 96 141 96 132V102Z" fill="#FFFFFF" fill-opacity="0.06"/>
    <rect x="104" y="84" width="48" height="56" rx="16" fill="url(#skin)"/>
    <circle cx="118" cy="111" r="4" fill="#2B2438"/>
    <circle cx="138" cy="111" r="4" fill="#2B2438"/>
    <path d="M116 129C122 136 134 136 140 129" stroke="#B55C59" stroke-width="5" stroke-linecap="round"/>
    <path d="M96 88C99 73 111 64 128 64C145 64 157 73 160 88" stroke="#7D5BFF" stroke-opacity="0.2" stroke-width="6" stroke-linecap="round"/>
    <path d="M90 102C90 78 106 60 128 60C150 60 166 78 166 102V134C166 146 156 156 144 156H112C100 156 90 146 90 134V102Z" stroke="#2B1B37" stroke-opacity="0.14" stroke-width="2"/>
  </g>
</svg>
